<?xml version="1.0" encoding="utf-8"?>
<!-- Generator: Adobe Illustrator 23.0.3, SVG Export Plug-In . SVG Version: 6.00 Build 0)  -->
<svg version="1.1" id="Artwork" xmlns="http://www.w3.org/2000/svg" xmlns:xlink="http://www.w3.org/1999/xlink" x="0px" y="0px"
	 viewBox="0 0 737.01 737.01" style="enable-background:new 0 0 737.01 737.01;" xml:space="preserve">
<style type="text/css">
	.st0{fill:#FFF200;}
	.st1{fill:#062E28;}
</style>
<circle class="st0" cx="368.74" cy="369.08" r="367.69"/>
<g>
	<path class="st1" d="M80.4,374.18c-13.11,16.93-20.9,38.17-20.9,61.24c0,3.99,0.24,7.92,0.7,11.79
		c3.43,29.23,19.44,54.62,42.48,70.58c0,0,68.05,53.07,266.81,53.07c198.75,0,265.32-53.07,265.32-53.07
		c22.64-15.69,38.5-40.47,42.3-69.06c0.58-4.35,0.89-8.79,0.89-13.3c0-23.07-7.8-44.31-20.9-61.24c0,0-161.78-189.47-200.21-227.95
		c0,0-0.11-0.11-0.11-0.11h0c-22.59-22.55-53.66-36.51-88.02-36.51c-34.36,0-65.61,13.96-88.2,36.51c0,0-0.03,0.03-0.1,0.1
		C241.8,184.45,80.4,374.18,80.4,374.18z"/>
	<g>
		<path class="st0" d="M624.34,440.52c-3.36-3.92-7.38-6.79-12.07-8.61c-4.69-1.82-10.71-3.63-18.07-5.45
			c-7.08-1.63-12.35-3.28-15.8-4.95c-3.45-1.67-5.17-4.23-5.17-7.68c0-3.44,1.49-6.22,4.48-8.32c2.99-2.1,7.61-3.16,13.86-3.16
			c8.92,0,17.84,2.63,26.76,7.89l6.9-17.65c-4.41-2.87-9.57-5.07-15.45-6.6c-5.89-1.53-11.91-2.29-18.07-2.29
			c-8.83,0-16.3,1.39-22.42,4.16c-6.12,2.78-10.69,6.53-13.73,11.26c-3.03,4.73-4.55,10.02-4.55,15.85c0,6.7,1.68,12.05,5.04,16.07
			c3.36,4.02,7.38,6.94,12.07,8.75c4.69,1.82,10.71,3.64,18.07,5.45c4.78,1.15,8.57,2.2,11.38,3.16c2.8,0.96,5.1,2.22,6.9,3.8
			c1.79,1.58,2.69,3.57,2.69,5.95c0,3.25-1.52,5.86-4.55,7.82c-3.03,1.96-7.73,2.94-14.07,2.94c-5.7,0-11.4-0.95-17.11-2.87
			c-5.7-1.91-10.62-4.45-14.76-7.6l-2.29-1.85l-2.58,21.29c3.92,2.57,8.73,4.72,14.46,6.45c7.13,2.15,14.51,3.23,22.14,3.23
			c8.83,0,16.32-1.39,22.49-4.16c6.16-2.77,10.78-6.53,13.86-11.26c3.08-4.73,4.62-9.97,4.62-15.71
			C629.37,449.75,627.69,444.44,624.34,440.52z"/>
		<path class="st0" d="M258.9,383.47c-28.75,0-52.06,23.31-52.06,52.06c0,28.75,23.31,52.06,52.06,52.06
			c28.75,0,52.06-23.31,52.06-52.06C310.96,406.78,287.65,383.47,258.9,383.47z M258.9,466.8c-17.31,0-31.35-14.04-31.35-31.35
			s14.04-31.35,31.35-31.35c17.31,0,31.35,14.04,31.35,31.35S276.21,466.8,258.9,466.8z"/>
		<g>
			<polygon class="st0" points="457.08,442.71 457.08,442.72 457.08,442.72 457.08,442.72 			"/>
			<polygon class="st0" points="503.29,442.72 503.29,442.72 503.29,442.71 503.29,442.72 			"/>
			<path class="st0" d="M503.29,385.21v19.03v38.47c0,0,0,0,0,0c0,12.76-10.34,23.1-23.1,23.1c-12.76,0-23.1-10.34-23.1-23.1
				c0,0,0,0,0,0v-38.47V385.9h-21.77v56.81c0,24.78,20.09,44.87,44.87,44.87c24.78,0,44.87-20.09,44.87-44.87v-57.51H503.29z"/>
		</g>
		<polygon class="st0" points="409.75,385.21 327.85,385.21 325.3,406.24 357.8,406.24 357.8,486.05 379.69,486.05 379.69,406.24 
			412.29,406.24 		"/>
		<polygon class="st0" points="196.03,464.88 141.81,464.88 141.81,385.21 119.92,385.21 119.92,486.05 193.47,486.05 		"/>
	</g>
	<path class="st0" d="M368.76,325.22c-36.23,0-66.41-25.85-73.13-60.11l0.04-0.04l8.96-8.96h34.16
		c2.27,12.39,12.06,22.18,24.44,24.45v23.98l25.51,0c16.41,0,29.75-13.32,29.75-29.7c0-9.99-4.95-18.84-12.54-24.23
		c7.58-5.4,12.54-14.26,12.54-24.25c0-16.41-13.35-29.75-29.75-29.75h-27.37c-8.1,0-15.75,3.11-21.61,8.82l-45.54,45.54
		c0-0.08,0-0.17,0-0.25c0-41.16,33.36-74.52,74.52-74.52c29.48,0,54.96,17.12,67.04,41.95h12.03
		c-12.79-31.12-43.41-53.02-79.13-53.02c-47.24,0-85.53,38.29-85.53,85.53c0,3.63,0.23,7.21,0.67,10.73l-42.68,42.68h15.55
		l29.77-29.77c10.26,35.74,43.18,61.89,82.22,61.89c35.54,0,66.01-21.67,78.93-52.52h-12C423.46,308.27,398.09,325.22,368.76,325.22
		z M349.28,250.61c0-8.82,5.9-16.27,13.95-18.65v37.3C355.18,266.88,349.28,259.42,349.28,250.61z M407.51,274.84
		c0,10.31-8.41,18.7-18.76,18.7l-14.52,0v-12.99c8.4-1.54,15.6-6.53,20.08-13.45h-15.31c-1.47,0.92-3.07,1.66-4.78,2.16V256.1h14.52
		C399.09,256.1,407.51,264.51,407.51,274.84z M374.23,231.95c1.7,0.51,3.3,1.24,4.78,2.16h15.31c-4.48-6.92-11.68-11.91-20.08-13.45
		V207.6h14.52c10.34,0,18.76,8.41,18.76,18.76c0,10.34-8.41,18.76-18.76,18.76h-14.52V231.95z M347.5,213.24
		c3.74-3.64,8.66-5.64,13.88-5.64h1.86v13.07c-12.39,2.27-22.17,12.06-24.44,24.45h-23.16L347.5,213.24z"/>
</g>
</svg>
